<svg width="194" height="30" viewBox="0 0 194 30" fill="none" xmlns="http://www.w3.org/2000/svg">
<path d="M14.64 0.233509H24.5345C24.982 0.22675 25.4285 0.277188 25.8633 0.383593C26.8182 0.63701 27.6645 1.19459 28.274 1.97179C28.8836 2.74899 29.2232 3.70356 29.2415 4.69101C29.2415 5.81667 29.2415 6.92353 29.2415 8.03792C29.2415 13.6436 29.2328 19.2492 29.2153 24.8549C29.2231 25.6903 28.9982 26.5111 28.5659 27.2265C28.2467 27.7728 27.8131 28.2439 27.2948 28.607C26.7765 28.9705 26.1857 29.2173 25.563 29.331C25.1661 29.4094 24.7626 29.4483 24.3581 29.4473H4.88059C4.19781 29.4677 3.51816 29.3479 2.88367 29.095C2.18358 28.8241 1.56405 28.3796 1.08333 27.803C0.602609 27.227 0.276634 26.5377 0.136023 25.8004C0.0625433 25.4576 0.0260337 25.1079 0.0272114 24.7573C0.0096479 18.1211 0.000891345 11.4836 0.000891345 4.84484C-0.0169794 3.95585 0.234236 3.08223 0.721612 2.33842C1.11687 1.69093 1.67306 1.1568 2.33613 0.787913C2.99919 0.419027 3.74643 0.22803 4.50525 0.233509C5.92411 0.233509 7.36176 0.233509 8.79936 0.233509H14.64ZM1.20581 14.8968H1.17954C1.17954 18.1086 1.17954 21.3204 1.17954 24.5322C1.1755 24.7556 1.20586 24.9784 1.26961 25.1926C1.35835 25.465 1.46624 25.7307 1.59247 25.9878C1.78285 26.3816 2.03642 26.7415 2.34319 27.0534C2.70296 27.4287 3.13099 27.7319 3.60439 27.9464C4.1335 28.1927 4.70992 28.3207 5.29351 28.3218C11.5095 28.3218 17.7242 28.3218 23.9377 28.3218H24.223C24.4681 28.3248 24.7119 28.2854 24.9437 28.2055C25.2173 28.118 25.4845 28.0114 25.7432 27.8865C26.2809 27.6274 26.756 27.2551 27.1358 26.7948C27.3998 26.4666 27.6159 26.103 27.7777 25.7144C27.9811 25.2678 28.0848 24.7825 28.0817 24.2921C28.0554 22.7612 28.0479 21.2303 28.0479 19.6995C28.0479 14.8693 28.0479 10.0403 28.0479 5.21254C28.0436 4.90459 27.9851 4.59976 27.8753 4.31204C27.8039 4.10942 27.7063 3.93686 27.6163 3.73045C27.3674 3.21296 27.0073 2.75682 26.5615 2.3947C26.2222 2.11225 25.8427 1.88208 25.4354 1.71182C25.0453 1.54258 24.6256 1.45205 24.2004 1.44544C17.8143 1.44544 11.4332 1.44544 5.05704 1.44544C4.84351 1.44463 4.63065 1.46854 4.42265 1.51672C4.03103 1.61519 3.65467 1.76666 3.30412 1.96697C2.76252 2.2673 2.29752 2.68846 1.94527 3.19765C1.71464 3.53991 1.52682 3.90915 1.386 4.29704C1.26669 4.5929 1.20428 4.90859 1.20207 5.22755C1.20709 8.45186 1.20832 11.675 1.20581 14.8968Z" fill="#00349A"/>
<path d="M11.9299 16.0374C11.9681 16.0782 12.0096 16.1158 12.0538 16.15C12.8308 16.619 13.5327 17.1894 14.2571 17.7296C16.134 19.1179 17.9882 20.5175 19.8538 21.9095C19.975 21.9971 20.0916 22.091 20.2029 22.1909C20.2863 22.2717 20.356 22.3654 20.4093 22.4686C20.4341 22.5155 20.447 22.5678 20.447 22.6208C20.447 22.6739 20.4341 22.7262 20.4093 22.7731C20.3845 22.82 20.3487 22.8602 20.3048 22.8902C20.261 22.9202 20.2106 22.939 20.1578 22.9451C20.0201 22.9539 19.8819 22.9399 19.7487 22.9038C19.6383 22.8674 19.5324 22.8183 19.4334 22.7575L11.9562 18.3562C11.7647 18.2437 11.5808 18.1161 11.3894 17.9998C11.3443 17.9735 11.2955 17.9585 11.228 17.9285C11.2035 17.9762 11.1846 18.0266 11.1717 18.0786C11.1661 18.1748 11.1661 18.2713 11.1717 18.3675C11.1717 19.3993 11.1717 20.4312 11.1717 21.4592C11.1717 21.5568 11.1717 21.6543 11.1717 21.7481C11.1609 21.958 11.0729 22.1564 10.9247 22.3053C10.7764 22.4542 10.5783 22.5431 10.3684 22.5549C10.1673 22.5717 9.96518 22.5717 9.76409 22.5549C9.55481 22.5392 9.35875 22.4465 9.21383 22.2947C9.06897 22.1429 8.98551 21.9429 8.97957 21.7331C8.97957 21.6806 8.97957 21.6281 8.97957 21.5756L8.93451 16.7916C8.93451 16.694 8.93451 16.6002 8.93451 16.5027C8.93845 16.2874 9.02279 16.0812 9.17103 15.9249C9.53146 15.5345 9.91505 15.1662 10.3196 14.8218C10.6687 14.5591 11.0103 14.289 11.3744 14.0488C13.7767 12.4754 16.1815 10.9083 18.5888 9.34742C18.7539 9.22949 18.938 9.14065 19.1331 9.08479C19.2298 9.05186 19.3345 9.05083 19.4318 9.08192C19.5292 9.113 19.6139 9.1745 19.6736 9.25735C19.7128 9.30098 19.7388 9.35474 19.7488 9.4125C19.7587 9.47021 19.7522 9.52961 19.7299 9.58378C19.6758 9.69895 19.6063 9.80622 19.5235 9.90274C19.4286 10.005 19.3243 10.0979 19.2119 10.1804L12.4779 15.5834L12.0763 15.8949C12.0247 15.9394 11.9758 15.987 11.9299 16.0374Z" fill="#00349A"/>
<path d="M8.94549 12.334C8.94549 12.0601 8.94549 11.7825 8.94549 11.5048C8.931 11.34 8.95767 11.1741 9.02322 11.0222C9.08871 10.8702 9.19102 10.7369 9.32088 10.6343C9.3708 10.5946 9.41724 10.5507 9.45975 10.503C10.0133 9.89855 10.6444 9.36995 11.3365 8.93087L16.4414 5.60649L18.6335 4.18067C18.8087 4.0587 19.0045 3.9697 19.2116 3.91804C19.3 3.89566 19.393 3.89976 19.4791 3.92976C19.5652 3.95982 19.6406 4.01441 19.6959 4.08686C19.743 4.13602 19.7731 4.19895 19.7819 4.26649C19.7907 4.33398 19.7776 4.40255 19.7446 4.4621C19.6727 4.59743 19.5845 4.72345 19.4819 4.83728C19.3903 4.92551 19.2924 5.00703 19.1891 5.08117C16.9895 6.85217 14.7874 8.62445 12.5827 10.398C12.2074 10.6869 11.832 10.9532 11.4567 11.2159C11.3892 11.2519 11.3334 11.3062 11.2955 11.3727C11.2576 11.439 11.2393 11.5148 11.2427 11.5911C11.2427 12.1014 11.2427 12.6117 11.2427 13.122C11.2427 13.197 11.2427 13.2721 11.2427 13.3434C11.2478 13.5754 11.162 13.8003 11.0035 13.97C10.845 14.1397 10.6264 14.2406 10.3944 14.2514C10.2033 14.2664 10.0112 14.2664 9.82008 14.2514C9.58965 14.2427 9.37126 14.1461 9.20996 13.9814C9.04867 13.8167 8.9567 13.5964 8.95301 13.3659C8.95301 13.0282 8.95301 12.6867 8.95301 12.3453L8.94549 12.334Z" fill="#00349A"/>
<path d="M49.7252 9.23197V13.798H55.7358V14.8607H49.7252V19.792H48.4965V8.16933H56.4664V9.23197H49.7252ZM67.3176 19.9746L65.707 18.3143C64.7219 19.3658 63.4268 19.8916 61.8217 19.8916C61.069 19.8916 60.3938 19.7699 59.7961 19.5263C59.2094 19.2717 58.75 18.9231 58.418 18.4803C58.0859 18.0265 57.9198 17.5117 57.9198 16.9361C57.9198 16.2388 58.1412 15.6134 58.584 15.0599C59.0268 14.5064 59.7795 13.9253 60.8421 13.3165C60.2886 12.7409 59.9068 12.2539 59.6964 11.8554C59.4861 11.4458 59.381 11.0141 59.381 10.5603C59.381 9.81864 59.6466 9.2209 60.178 8.76707C60.7093 8.31323 61.4232 8.08631 62.3198 8.08631C63.15 8.08631 63.8087 8.29109 64.2957 8.70065C64.7827 9.11021 65.0263 9.67474 65.0263 10.3942C65.0263 10.9698 64.8326 11.4901 64.4451 11.955C64.0577 12.4088 63.388 12.9125 62.4361 13.4659L65.624 16.7535C65.9782 16.1226 66.2383 15.3754 66.4044 14.512L67.3674 14.8109C67.1571 15.8514 66.8139 16.7424 66.338 17.4841L67.9983 19.1943L67.3176 19.9746ZM62.3198 8.96631C61.7442 8.96631 61.2904 9.11021 60.9583 9.39801C60.6373 9.68581 60.4768 10.0677 60.4768 10.5437C60.4768 10.8868 60.5654 11.2134 60.7425 11.5233C60.9196 11.8332 61.2683 12.2539 61.7885 12.7852C62.6298 12.2981 63.2109 11.883 63.5319 11.5399C63.8529 11.1968 64.0134 10.8204 64.0134 10.4108C64.0134 9.96807 63.864 9.61939 63.5651 9.3648C63.2663 9.09914 62.8512 8.96631 62.3198 8.96631ZM61.8881 18.912C63.1722 18.912 64.2127 18.4748 65.0097 17.6003L61.5063 13.9973C60.5875 14.5175 59.951 14.988 59.5968 15.4086C59.2537 15.8292 59.0821 16.2997 59.0821 16.8199C59.0821 17.4509 59.3367 17.96 59.8459 18.3475C60.3661 18.7238 61.0469 18.912 61.8881 18.912ZM74.2073 14.3293L71.8329 16.7369V19.792H70.6042V8.16933H71.8329V15.1927L78.6571 8.16933H80.0684L75.0375 13.4327L80.4171 19.792H78.956L74.2073 14.3293ZM90.9548 19.8916C90.0914 19.8916 89.2612 19.7532 88.4642 19.4765C87.6783 19.1998 87.0695 18.8345 86.6378 18.3807L87.1193 17.4343C87.5399 17.8549 88.0989 18.198 88.7963 18.4637C89.4937 18.7183 90.2132 18.8456 90.9548 18.8456C91.9953 18.8456 92.7757 18.6574 93.2959 18.281C93.8162 17.8936 94.0763 17.3955 94.0763 16.7867C94.0763 16.3218 93.9324 15.951 93.6446 15.6742C93.3679 15.3975 93.0247 15.1872 92.6152 15.0433C92.2056 14.8883 91.6355 14.7223 90.905 14.5452C90.0305 14.3238 89.3332 14.1135 88.8129 13.9142C88.2927 13.7039 87.8443 13.3885 87.468 12.9678C87.1027 12.5472 86.9201 11.9771 86.9201 11.2576C86.9201 10.671 87.075 10.1396 87.385 9.66367C87.6949 9.17663 88.1709 8.7892 88.8129 8.50141C89.4549 8.21361 90.2519 8.06971 91.2039 8.06971C91.868 8.06971 92.5156 8.16379 93.1465 8.35197C93.7885 8.52908 94.342 8.77814 94.8069 9.09914L94.3918 10.0788C93.9047 9.75776 93.3845 9.51977 92.831 9.3648C92.2776 9.19877 91.7352 9.11575 91.2039 9.11575C90.1855 9.11575 89.4162 9.31499 88.8959 9.71348C88.3867 10.1009 88.1321 10.6046 88.1321 11.2244C88.1321 11.6893 88.2705 12.0657 88.5472 12.3535C88.835 12.6302 89.1893 12.8461 89.6099 13.001C90.0416 13.1449 90.6172 13.3054 91.3367 13.4825C92.189 13.6929 92.8753 13.9032 93.3956 14.1135C93.9269 14.3127 94.3752 14.6227 94.7405 15.0433C95.1057 15.4529 95.2884 16.0119 95.2884 16.7203C95.2884 17.307 95.1279 17.8438 94.8069 18.3309C94.4969 18.8068 94.0154 19.1887 93.3623 19.4765C92.7093 19.7532 91.9067 19.8916 90.9548 19.8916ZM105.753 16.6871H99.2772L97.8825 19.792H96.604L101.917 8.16933H103.129L108.442 19.792H107.147L105.753 16.6871ZM105.304 15.6909L102.515 9.44782L99.7255 15.6909H105.304ZM119.927 8.16933L114.78 19.792H113.567L108.42 8.16933H109.749L114.198 18.2644L118.681 8.16933H119.927ZM122.112 8.16933H123.34V19.792H122.112V8.16933ZM137.333 8.16933V19.792H136.321L128.849 10.361V19.792H127.62V8.16933H128.633L136.121 17.6003V8.16933H137.333ZM149.811 13.9807H150.99V18.4139C150.447 18.8899 149.805 19.2551 149.064 19.5097C148.322 19.7643 147.542 19.8916 146.722 19.8916C145.56 19.8916 144.514 19.637 143.584 19.1278C142.655 18.6187 141.924 17.9158 141.393 17.0192C140.861 16.1115 140.596 15.0987 140.596 13.9807C140.596 12.8627 140.861 11.8554 141.393 10.9588C141.924 10.0511 142.655 9.34266 143.584 8.83348C144.514 8.3243 145.566 8.06971 146.739 8.06971C147.625 8.06971 148.438 8.21361 149.18 8.50141C149.921 8.77814 150.547 9.19323 151.056 9.74669L150.292 10.5271C149.374 9.61939 148.206 9.16556 146.789 9.16556C145.848 9.16556 144.996 9.37587 144.232 9.7965C143.479 10.2061 142.887 10.7817 142.455 11.5233C142.024 12.2539 141.808 13.073 141.808 13.9807C141.808 14.8883 142.024 15.7075 142.455 16.438C142.887 17.1686 143.479 17.7442 144.232 18.1648C144.985 18.5854 145.831 18.7958 146.772 18.7958C147.968 18.7958 148.981 18.4969 149.811 17.8992V13.9807ZM158.17 19.8916C157.306 19.8916 156.476 19.7532 155.679 19.4765C154.893 19.1998 154.284 18.8345 153.853 18.3807L154.334 17.4343C154.755 17.8549 155.314 18.198 156.011 18.4637C156.709 18.7183 157.428 18.8456 158.17 18.8456C159.21 18.8456 159.991 18.6574 160.511 18.281C161.031 17.8936 161.291 17.3955 161.291 16.7867C161.291 16.3218 161.147 15.951 160.86 15.6742C160.583 15.3975 160.24 15.1872 159.83 15.0433C159.421 14.8883 158.85 14.7223 158.12 14.5452C157.245 14.3238 156.548 14.1135 156.028 13.9142C155.508 13.7039 155.059 13.3885 154.683 12.9678C154.318 12.5472 154.135 11.9771 154.135 11.2576C154.135 10.671 154.29 10.1396 154.6 9.66367C154.91 9.17663 155.386 8.7892 156.028 8.50141C156.67 8.21361 157.467 8.06971 158.419 8.06971C159.083 8.06971 159.73 8.16379 160.361 8.35197C161.003 8.52908 161.557 8.77814 162.022 9.09914L161.607 10.0788C161.12 9.75776 160.599 9.51977 160.046 9.3648C159.492 9.19877 158.95 9.11575 158.419 9.11575C157.4 9.11575 156.631 9.31499 156.111 9.71348C155.602 10.1009 155.347 10.6046 155.347 11.2244C155.347 11.6893 155.485 12.0657 155.762 12.3535C156.05 12.6302 156.404 12.8461 156.825 13.001C157.257 13.1449 157.832 13.3054 158.552 13.4825C159.404 13.6929 160.09 13.9032 160.61 14.1135C161.142 14.3127 161.59 14.6227 161.955 15.0433C162.321 15.4529 162.503 16.0119 162.503 16.7203C162.503 17.307 162.343 17.8438 162.022 18.3309C161.712 18.8068 161.23 19.1887 160.577 19.4765C159.924 19.7532 159.122 19.8916 158.17 19.8916Z" fill="#21254B"/>
</svg>
